<?xml version="1.0" encoding="UTF-8"?>
<svg id="Layer_2" data-name="Layer 2" xmlns="http://www.w3.org/2000/svg" viewBox="0 0 460.4 413.89">
  <defs>
    <style>
      .cls-1 {
        fill: #4a6fa5;
        stroke-width: 0px;
      }
    </style>
  </defs>
  <g id="Layer_1-2" data-name="Layer 1">
    <path class="cls-1" d="M441.97,293.57c1.85-4.1,3.62-8.43,5.29-12.99,8.76-24.34,13.14-48.79,13.14-73.35,0-26.59-4.94-48.23-14.83-64.91-12.13-20.5-30.56-30.76-55.27-30.76-4.27,0-8.32.24-12.14.69-10.78,1.38-22.02,6.89-33.7,16.54-3.18,2.64-7.05,6.52-11.62,11.66-.87.98-2.46.75-3.01-.43-8.87-18.97-20.74-28.46-35.59-28.46-2.7,0-5.51.23-8.43.68-18.65,2.69-33.03,18.87-43.14,48.53-6.97,20.48-10.56,40.54-10.77,60.18-.01,1.01.82,1.84,1.83,1.84h34.59c1.02,0,1.86-.84,1.82-1.86-.17-4.92,1.12-13.96,3.87-27.13,5.39-25.83,12.13-38.76,20.22-38.76,2.92,0,5.17,2.48,6.74,7.42,1.12,3.59,1.69,7.19,1.69,10.78,0,2.02-.23,3.49-.68,4.38-4.5,13.94-8.65,24.39-12.47,31.35-11.46,20.9-25.17,31.34-41.12,31.34-1.58,0-3.06-2.23-4.46-6.71-.33-1.07-1.52-1.6-2.53-1.12l-28.64,13.72c-.96.46-1.32,1.65-.79,2.56,8.92,15.4,18.37,28.09,28.34,38.07,20.67,20.44,44.16,30.67,70.45,30.67s48.81-6.94,65.55-20.82c16.74-13.87,26.79-34.34,30.17-61.42.67-5.18,1.01-10.37,1.01-15.56,0-33.48-13.94-51.04-41.8-52.67-1.62-.09-2.31-2.1-1.1-3.18,10.56-9.46,19.91-14.2,28.07-14.2,11.23,0,19.32,7.44,24.26,22.32,3.37,10.15,5.06,22.1,5.06,35.86,0,20.29-3.49,39.69-10.45,58.17-7.93,21.32-19.05,36.15-33.33,44.52-1.02.6-1.2,2.01-.36,2.85,10.75,10.76,19.28,19.13,25.61,25.09.59.56,1.48.66,2.18.24.01,0,.02-.02.04-.02,1.15-.7,2.64.08,2.75,1.43l.18,2.31c.11,1.38-1.3,2.37-2.57,1.8-13.01-5.8-21.61-9.54-25.8-11.22-8.3-3.15-17.5-4.72-27.6-4.72-9.37,0-19.75,1.89-31.12,5.67-.12.04-.24.09-.35.16-17.42,10.06-30.48,17.56-39.21,22.48-11.93,6.6-23.22,11.38-33.85,14.32-6.14,1.7-11.68,3.73-17.9,4.98-.16.03.16-.04,0,0-4.92,1.17-10.1,1.26-15.16,1.26-6.74,0-12.7-1.57-17.87-4.72-2.12-1.24-4.03-2.62-5.71-4.12-6.53-5.81-9.79-13.53-9.79-23.18,0-7.19,2.02-16.63,6.07-28.31,1.52-4.37,5.28-13.94,11.27-28.71.31-.75.07-1.63-.57-2.13-16.99-13.28-27.13-21.12-30.42-23.51-.51-.37-1.19-.45-1.77-.21-5.63,2.31-10.16,4.2-13.57,5.69-1.12.45-2.81,1.13-5.05,2.02l-11.46,4.05c-9.89,3.59-16.52,5.39-19.89,5.39-5.39,0-8.09-1.69-8.09-5.06,0-7.4,25.91-36.23,77.72-86.48.09-.09.18-.19.25-.3,8.24-12.07,12.36-23.7,12.36-34.89,0-12.58-4.67-22.58-13.99-29.99-9.32-7.42-20.39-11.13-33.19-11.13-14.26,0-27.45,5.04-39.56,15.09-.54.45-1.3.56-1.95.26-42.44-19.82-63.65-39.21-63.65-58.15,0-12.58,12.02-21.46,36.06-26.63,14.83-3.37,31.68-5.05,50.56-5.05,50.07,0,95.73,9.81,136.98,29.42.71.34,1.56.18,2.1-.4l22.9-24.43c.77-.82.63-2.14-.31-2.76-19.82-13.11-46.29-23.16-79.44-30.14C186.5,2.93,157.29,0,127.4,0c-25.61,0-49.88,2.25-72.8,6.74-15.27,2.93-28.19,10.4-38.76,22.42C5.29,41.18,0,54.94,0,70.44c0,36.62,27.61,65.56,82.84,86.83,1.08.42,1.51,1.7.89,2.68-6.35,9.92-12.8,21.44-19.35,34.53-4.82,9.84-7.93,16.99-9.35,21.43-.27.85.14,1.76.93,2.17,11.64,5.9,21.78,10.64,30.42,14.23,1.13.47,1.47,1.9.69,2.84-19.85,24.24-29.78,43.04-29.78,56.39,0,18.88,13.37,28.32,40.11,28.32,15.47,0,31.8-3.61,48.98-10.8,1.55-.65,3.07.95,2.34,2.47-5.91,12.37-8.86,24.46-8.86,36.3,0,21.79,10.67,40.11,32.01,54.94.99.68,1.99,1.34,3,1.96,2.46,1.57,4.99,2.97,7.55,4.23.07.04.15.07.23.1,8.99,3.22,19.78,4.84,32.37,4.84,11.55,0,23.42-1.28,35.6-3.85,7.72-1.63,15.57-3.78,23.55-6.43,20.56-6.86,38.37-15.9,53.42-27.13,5.39-4.05,12.92-6.07,22.58-6.07,8.76,0,19.77,1.98,33.03,5.93,7.97,2.37,15.61,5.07,22.93,8.09.22.09.45.14.68.14h40.16c1.05,0,1.89-.89,1.82-1.94l-5.93-89.06h-.91ZM368.39,220.76c0,12.36-3.93,23.6-11.8,33.71-11.91,15.28-26.74,22.92-44.49,22.92-14.38,0-25.39-3.59-33.03-10.79,17.08-5.84,30.11-14.6,39.1-26.29,6.96-8.98,13.93-23.36,20.9-43.14,19.55,0,29.32,7.87,29.32,23.59ZM93.7,227.17c2.47-7.38,6.29-16.33,11.46-26.85,5.84-11.86,10.79-20.25,14.83-25.17,14.38-17.68,24.94-26.51,31.68-26.51,3.37,0,5.06,2.02,5.06,6.04,0,7.83-4.61,15.1-13.82,21.81-5.62,5.15-10.9,10.19-15.84,15.11-12.81,12.53-23.93,24.38-33.37,35.57Z"/>
  </g>
</svg>